# Blender 4.0.2
# www.blender.org
mtllib cube.mtl
o cube
v -0.526710 0.936929 2.155133
v -0.026710 0.936929 2.155133
v -0.026710 1.436929 2.155133
v -0.526710 1.436929 2.155133
v -0.526710 0.936929 1.655133
v -0.026710 0.936929 1.655133
v -0.026710 1.436929 1.655133
v -0.526710 1.436929 1.655133
vn -0.0000 -0.0000 1.0000
vn 1.0000 -0.0000 -0.0000
vn -0.0000 -0.0000 -1.0000
vn -1.0000 -0.0000 -0.0000
vn -0.0000 1.0000 -0.0000
vn -0.0000 -1.0000 -0.0000
vt 0.000000 0.000000
vt 1.000000 0.000000
vt 1.000000 1.000000
vt 0.000000 1.000000
s 0
f 1/1/1 2/2/1 3/3/1
f 1/1/1 3/3/1 4/4/1
f 2/2/2 6/1/2 7/2/2
f 2/2/2 7/2/2 3/3/2
f 6/1/3 5/4/3 8/1/3
f 6/1/3 8/1/3 7/2/3
f 5/4/4 1/2/4 4/3/4
f 5/4/4 4/3/4 8/4/4
f 4/4/5 3/3/5 7/2/5
f 4/4/5 7/2/5 8/1/5
f 5/4/6 6/1/6 2/2/6
f 5/4/6 2/2/6 1/1/6
